<svg xmlns="http://www.w3.org/2000/svg" version="1.1" xmlns:xlink="http://www.w3.org/1999/xlink" xmlns:svgjs="http://svgjs.dev/svgjs" width="1440" height="560" preserveAspectRatio="none" viewBox="0 0 1440 560"><g mask="url(&quot;#SvgjsMask1105&quot;)" fill="none"><rect width="1440" height="560" x="0" y="0" fill="rgba(14, 42, 71, 1)"></rect><path d="M-79.04 363.54L-79.04 363.54" stroke="rgba(19, 53, 121, 1)" stroke-width="1.5"></path><path d="M-79.04 363.54L58 381.55" stroke="rgba(19, 53, 121, 1)" stroke-width="1.5"></path><path d="M-79.04 363.54L-58.18 518.58" stroke="rgba(19, 53, 121, 1)" stroke-width="1.5"></path><path d="M-58.18 518.58L-58.18 518.58" stroke="rgba(19, 53, 121, 1)" stroke-width="1.5"></path><path d="M-58.18 518.58L37.98 558.95" stroke="rgba(19, 53, 121, 1)" stroke-width="1.5"></path><path d="M-74.75 664.67L-74.75 664.67" stroke="rgba(19, 53, 121, 1)" stroke-width="1.5"></path><path d="M-74.75 664.67L49.94 694.11" stroke="rgba(19, 53, 121, 1)" stroke-width="1.5"></path><path d="M-74.75 664.67L-58.18 518.58" stroke="rgba(19, 53, 121, 1)" stroke-width="1.5"></path><path d="M-74.75 664.67L37.98 558.95" stroke="rgba(19, 53, 121, 1)" stroke-width="1.5"></path><path d="M-74.75 664.67L224.11 655.92" stroke="rgba(19, 53, 121, 1)" stroke-width="1.5"></path><path d="M-74.75 664.67L-79.04 363.54" stroke="rgba(19, 53, 121, 1)" stroke-width="1.5"></path><path d="M-74.75 664.67L202.95 533.36" stroke="rgba(19, 53, 121, 1)" stroke-width="1.5"></path><path d="M58 381.55L58 381.55" stroke="rgba(19, 53, 121, 1)" stroke-width="1.5"></path><path d="M58 381.55L37.98 558.95" stroke="rgba(19, 53, 121, 1)" stroke-width="1.5"></path><path d="M58 381.55L-58.18 518.58" stroke="rgba(19, 53, 121, 1)" stroke-width="1.5"></path><path d="M58 381.55L256.75 386.8" stroke="rgba(19, 53, 121, 1)" stroke-width="1.5"></path><path d="M58 381.55L202.95 533.36" stroke="rgba(19, 53, 121, 1)" stroke-width="1.5"></path><path d="M37.98 558.95L37.98 558.95" stroke="rgba(19, 53, 121, 1)" stroke-width="1.5"></path><path d="M37.98 558.95L49.94 694.11" stroke="rgba(19, 53, 121, 1)" stroke-width="1.5"></path><path d="M37.98 558.95L202.95 533.36" stroke="rgba(19, 53, 121, 1)" stroke-width="1.5"></path><path d="M37.98 558.95L224.11 655.92" stroke="rgba(19, 53, 121, 1)" stroke-width="1.5"></path><path d="M49.94 694.11L49.94 694.11" stroke="rgba(19, 53, 121, 1)" stroke-width="1.5"></path><path d="M49.94 694.11L224.11 655.92" stroke="rgba(19, 53, 121, 1)" stroke-width="1.5"></path><path d="M49.94 694.11L-58.18 518.58" stroke="rgba(19, 53, 121, 1)" stroke-width="1.5"></path><path d="M256.75 386.8L256.75 386.8" stroke="rgba(19, 53, 121, 1)" stroke-width="1.5"></path><path d="M256.75 386.8L344.34 407.81" stroke="rgba(19, 53, 121, 1)" stroke-width="1.5"></path><path d="M256.75 386.8L202.95 533.36" stroke="rgba(19, 53, 121, 1)" stroke-width="1.5"></path><path d="M256.75 386.8L397.41 542.66" stroke="rgba(19, 53, 121, 1)" stroke-width="1.5"></path><path d="M256.75 386.8L522.3 395.26" stroke="rgba(19, 53, 121, 1)" stroke-width="1.5"></path><path d="M202.95 533.36L202.95 533.36" stroke="rgba(19, 53, 121, 1)" stroke-width="1.5"></path><path d="M202.95 533.36L224.11 655.92" stroke="rgba(19, 53, 121, 1)" stroke-width="1.5"></path><path d="M202.95 533.36L344.34 407.81" stroke="rgba(19, 53, 121, 1)" stroke-width="1.5"></path><path d="M202.95 533.36L397.41 542.66" stroke="rgba(19, 53, 121, 1)" stroke-width="1.5"></path><path d="M224.11 655.92L224.11 655.92" stroke="rgba(19, 53, 121, 1)" stroke-width="1.5"></path><path d="M224.11 655.92L382.37 641.44" stroke="rgba(19, 53, 121, 1)" stroke-width="1.5"></path><path d="M344.34 407.81L344.34 407.81" stroke="rgba(19, 53, 121, 1)" stroke-width="1.5"></path><path d="M344.34 407.81L397.41 542.66" stroke="rgba(19, 53, 121, 1)" stroke-width="1.5"></path><path d="M344.34 407.81L522.3 395.26" stroke="rgba(19, 53, 121, 1)" stroke-width="1.5"></path><path d="M344.34 407.81L545.47 496.45" stroke="rgba(19, 53, 121, 1)" stroke-width="1.5"></path><path d="M397.41 542.66L397.41 542.66" stroke="rgba(19, 53, 121, 1)" stroke-width="1.5"></path><path d="M397.41 542.66L382.37 641.44" stroke="rgba(19, 53, 121, 1)" stroke-width="1.5"></path><path d="M397.41 542.66L545.47 496.45" stroke="rgba(19, 53, 121, 1)" stroke-width="1.5"></path><path d="M397.41 542.66L544.47 647.61" stroke="rgba(19, 53, 121, 1)" stroke-width="1.5"></path><path d="M397.41 542.66L522.3 395.26" stroke="rgba(19, 53, 121, 1)" stroke-width="1.5"></path><path d="M382.37 641.44L382.37 641.44" stroke="rgba(19, 53, 121, 1)" stroke-width="1.5"></path><path d="M382.37 641.44L544.47 647.61" stroke="rgba(19, 53, 121, 1)" stroke-width="1.5"></path><path d="M382.37 641.44L202.95 533.36" stroke="rgba(19, 53, 121, 1)" stroke-width="1.5"></path><path d="M522.3 395.26L522.3 395.26" stroke="rgba(19, 53, 121, 1)" stroke-width="1.5"></path><path d="M522.3 395.26L545.47 496.45" stroke="rgba(19, 53, 121, 1)" stroke-width="1.5"></path><path d="M522.3 395.26L680.04 353.6" stroke="rgba(19, 53, 121, 1)" stroke-width="1.5"></path><path d="M522.3 395.26L675.61 493.09" stroke="rgba(19, 53, 121, 1)" stroke-width="1.5"></path><path d="M522.3 395.26L662.34 230.58" stroke="rgba(19, 53, 121, 1)" stroke-width="1.5"></path><path d="M545.47 496.45L545.47 496.45" stroke="rgba(19, 53, 121, 1)" stroke-width="1.5"></path><path d="M545.47 496.45L675.61 493.09" stroke="rgba(19, 53, 121, 1)" stroke-width="1.5"></path><path d="M545.47 496.45L544.47 647.61" stroke="rgba(19, 53, 121, 1)" stroke-width="1.5"></path><path d="M544.47 647.61L544.47 647.61" stroke="rgba(19, 53, 121, 1)" stroke-width="1.5"></path><path d="M544.47 647.61L684.73 689.61" stroke="rgba(19, 53, 121, 1)" stroke-width="1.5"></path><path d="M662.34 230.58L662.34 230.58" stroke="rgba(19, 53, 121, 1)" stroke-width="1.5"></path><path d="M662.34 230.58L680.04 353.6" stroke="rgba(19, 53, 121, 1)" stroke-width="1.5"></path><path d="M662.34 230.58L801.13 256.75" stroke="rgba(19, 53, 121, 1)" stroke-width="1.5"></path><path d="M662.34 230.58L838.39 106.78" stroke="rgba(19, 53, 121, 1)" stroke-width="1.5"></path><path d="M662.34 230.58L855.84 361.1" stroke="rgba(19, 53, 121, 1)" stroke-width="1.5"></path><path d="M662.34 230.58L675.61 493.09" stroke="rgba(19, 53, 121, 1)" stroke-width="1.5"></path><path d="M680.04 353.6L680.04 353.6" stroke="rgba(19, 53, 121, 1)" stroke-width="1.5"></path><path d="M680.04 353.6L675.61 493.09" stroke="rgba(19, 53, 121, 1)" stroke-width="1.5"></path><path d="M680.04 353.6L801.13 256.75" stroke="rgba(19, 53, 121, 1)" stroke-width="1.5"></path><path d="M680.04 353.6L855.84 361.1" stroke="rgba(19, 53, 121, 1)" stroke-width="1.5"></path><path d="M675.61 493.09L675.61 493.09" stroke="rgba(19, 53, 121, 1)" stroke-width="1.5"></path><path d="M675.61 493.09L801.19 548.32" stroke="rgba(19, 53, 121, 1)" stroke-width="1.5"></path><path d="M675.61 493.09L684.73 689.61" stroke="rgba(19, 53, 121, 1)" stroke-width="1.5"></path><path d="M675.61 493.09L544.47 647.61" stroke="rgba(19, 53, 121, 1)" stroke-width="1.5"></path><path d="M684.73 689.61L684.73 689.61" stroke="rgba(19, 53, 121, 1)" stroke-width="1.5"></path><path d="M684.73 689.61L836.62 700.26" stroke="rgba(19, 53, 121, 1)" stroke-width="1.5"></path><path d="M684.73 689.61L801.19 548.32" stroke="rgba(19, 53, 121, 1)" stroke-width="1.5"></path><path d="M684.73 689.61L545.47 496.45" stroke="rgba(19, 53, 121, 1)" stroke-width="1.5"></path><path d="M838.39 106.78L838.39 106.78" stroke="rgba(19, 53, 121, 1)" stroke-width="1.5"></path><path d="M838.39 106.78L954.57 105.03" stroke="rgba(19, 53, 121, 1)" stroke-width="1.5"></path><path d="M838.39 106.78L801.13 256.75" stroke="rgba(19, 53, 121, 1)" stroke-width="1.5"></path><path d="M838.39 106.78L972.34 251.88" stroke="rgba(19, 53, 121, 1)" stroke-width="1.5"></path><path d="M838.39 106.78L953.47 -111.24" stroke="rgba(19, 53, 121, 1)" stroke-width="1.5"></path><path d="M838.39 106.78L855.84 361.1" stroke="rgba(19, 53, 121, 1)" stroke-width="1.5"></path><path d="M801.13 256.75L801.13 256.75" stroke="rgba(19, 53, 121, 1)" stroke-width="1.5"></path><path d="M801.13 256.75L855.84 361.1" stroke="rgba(19, 53, 121, 1)" stroke-width="1.5"></path><path d="M855.84 361.1L855.84 361.1" stroke="rgba(19, 53, 121, 1)" stroke-width="1.5"></path><path d="M855.84 361.1L987.71 386.73" stroke="rgba(19, 53, 121, 1)" stroke-width="1.5"></path><path d="M855.84 361.1L972.34 251.88" stroke="rgba(19, 53, 121, 1)" stroke-width="1.5"></path><path d="M855.84 361.1L801.19 548.32" stroke="rgba(19, 53, 121, 1)" stroke-width="1.5"></path><path d="M855.84 361.1L675.61 493.09" stroke="rgba(19, 53, 121, 1)" stroke-width="1.5"></path><path d="M801.19 548.32L801.19 548.32" stroke="rgba(19, 53, 121, 1)" stroke-width="1.5"></path><path d="M801.19 548.32L836.62 700.26" stroke="rgba(19, 53, 121, 1)" stroke-width="1.5"></path><path d="M801.19 548.32L991.26 561.81" stroke="rgba(19, 53, 121, 1)" stroke-width="1.5"></path><path d="M836.62 700.26L836.62 700.26" stroke="rgba(19, 53, 121, 1)" stroke-width="1.5"></path><path d="M836.62 700.26L941.82 692.57" stroke="rgba(19, 53, 121, 1)" stroke-width="1.5"></path><path d="M836.62 700.26L991.26 561.81" stroke="rgba(19, 53, 121, 1)" stroke-width="1.5"></path><path d="M953.47 -111.24L953.47 -111.24" stroke="rgba(19, 53, 121, 1)" stroke-width="1.5"></path><path d="M953.47 -111.24L954.57 105.03" stroke="rgba(19, 53, 121, 1)" stroke-width="1.5"></path><path d="M954.57 105.03L954.57 105.03" stroke="rgba(19, 53, 121, 1)" stroke-width="1.5"></path><path d="M954.57 105.03L972.34 251.88" stroke="rgba(19, 53, 121, 1)" stroke-width="1.5"></path><path d="M972.34 251.88L972.34 251.88" stroke="rgba(19, 53, 121, 1)" stroke-width="1.5"></path><path d="M972.34 251.88L1095.04 225.26" stroke="rgba(19, 53, 121, 1)" stroke-width="1.5"></path><path d="M972.34 251.88L987.71 386.73" stroke="rgba(19, 53, 121, 1)" stroke-width="1.5"></path><path d="M987.71 386.73L987.71 386.73" stroke="rgba(19, 53, 121, 1)" stroke-width="1.5"></path><path d="M987.71 386.73L1118.43 352.69" stroke="rgba(19, 53, 121, 1)" stroke-width="1.5"></path><path d="M987.71 386.73L991.26 561.81" stroke="rgba(19, 53, 121, 1)" stroke-width="1.5"></path><path d="M987.71 386.73L1095.04 225.26" stroke="rgba(19, 53, 121, 1)" stroke-width="1.5"></path><path d="M987.71 386.73L801.13 256.75" stroke="rgba(19, 53, 121, 1)" stroke-width="1.5"></path><path d="M991.26 561.81L991.26 561.81" stroke="rgba(19, 53, 121, 1)" stroke-width="1.5"></path><path d="M991.26 561.81L941.82 692.57" stroke="rgba(19, 53, 121, 1)" stroke-width="1.5"></path><path d="M991.26 561.81L1153.35 550.94" stroke="rgba(19, 53, 121, 1)" stroke-width="1.5"></path><path d="M991.26 561.81L1148.25 694.27" stroke="rgba(19, 53, 121, 1)" stroke-width="1.5"></path><path d="M941.82 692.57L941.82 692.57" stroke="rgba(19, 53, 121, 1)" stroke-width="1.5"></path><path d="M1152.91 80.66L1152.91 80.66" stroke="rgba(19, 53, 121, 1)" stroke-width="1.5"></path><path d="M1152.91 80.66L1302.08 41.34" stroke="rgba(19, 53, 121, 1)" stroke-width="1.5"></path><path d="M1095.04 225.26L1095.04 225.26" stroke="rgba(19, 53, 121, 1)" stroke-width="1.5"></path><path d="M1095.04 225.26L1118.43 352.69" stroke="rgba(19, 53, 121, 1)" stroke-width="1.5"></path><path d="M1095.04 225.26L1240.67 247.78" stroke="rgba(19, 53, 121, 1)" stroke-width="1.5"></path><path d="M1095.04 225.26L1152.91 80.66" stroke="rgba(19, 53, 121, 1)" stroke-width="1.5"></path><path d="M1118.43 352.69L1118.43 352.69" stroke="rgba(19, 53, 121, 1)" stroke-width="1.5"></path><path d="M1118.43 352.69L1244.36 391.41" stroke="rgba(19, 53, 121, 1)" stroke-width="1.5"></path><path d="M1153.35 550.94L1153.35 550.94" stroke="rgba(19, 53, 121, 1)" stroke-width="1.5"></path><path d="M1153.35 550.94L1269.86 551.42" stroke="rgba(19, 53, 121, 1)" stroke-width="1.5"></path><path d="M1153.35 550.94L1148.25 694.27" stroke="rgba(19, 53, 121, 1)" stroke-width="1.5"></path><path d="M1148.25 694.27L1148.25 694.27" stroke="rgba(19, 53, 121, 1)" stroke-width="1.5"></path><path d="M1148.25 694.27L1274.68 661.97" stroke="rgba(19, 53, 121, 1)" stroke-width="1.5"></path><path d="M1280.31 -92.34L1280.31 -92.34" stroke="rgba(19, 53, 121, 1)" stroke-width="1.5"></path><path d="M1280.31 -92.34L1302.08 41.34" stroke="rgba(19, 53, 121, 1)" stroke-width="1.5"></path><path d="M1280.31 -92.34L1440.92 -64.36" stroke="rgba(19, 53, 121, 1)" stroke-width="1.5"></path><path d="M1280.31 -92.34L1152.91 80.66" stroke="rgba(19, 53, 121, 1)" stroke-width="1.5"></path><path d="M1302.08 41.34L1302.08 41.34" stroke="rgba(19, 53, 121, 1)" stroke-width="1.5"></path><path d="M1302.08 41.34L1448.06 80.75" stroke="rgba(19, 53, 121, 1)" stroke-width="1.5"></path><path d="M1302.08 41.34L1440.92 -64.36" stroke="rgba(19, 53, 121, 1)" stroke-width="1.5"></path><path d="M1240.67 247.78L1240.67 247.78" stroke="rgba(19, 53, 121, 1)" stroke-width="1.5"></path><path d="M1240.67 247.78L1244.36 391.41" stroke="rgba(19, 53, 121, 1)" stroke-width="1.5"></path><path d="M1244.36 391.41L1244.36 391.41" stroke="rgba(19, 53, 121, 1)" stroke-width="1.5"></path><path d="M1244.36 391.41L1269.86 551.42" stroke="rgba(19, 53, 121, 1)" stroke-width="1.5"></path><path d="M1244.36 391.41L1408.46 385.25" stroke="rgba(19, 53, 121, 1)" stroke-width="1.5"></path><path d="M1269.86 551.42L1269.86 551.42" stroke="rgba(19, 53, 121, 1)" stroke-width="1.5"></path><path d="M1269.86 551.42L1274.68 661.97" stroke="rgba(19, 53, 121, 1)" stroke-width="1.5"></path><path d="M1274.68 661.97L1274.68 661.97" stroke="rgba(19, 53, 121, 1)" stroke-width="1.5"></path><path d="M1274.68 661.97L1153.35 550.94" stroke="rgba(19, 53, 121, 1)" stroke-width="1.5"></path><path d="M1274.68 661.97L1406.13 543.95" stroke="rgba(19, 53, 121, 1)" stroke-width="1.5"></path><path d="M1440.92 -64.36L1440.92 -64.36" stroke="rgba(19, 53, 121, 1)" stroke-width="1.5"></path><path d="M1440.92 -64.36L1448.06 80.75" stroke="rgba(19, 53, 121, 1)" stroke-width="1.5"></path><path d="M1448.06 80.75L1448.06 80.75" stroke="rgba(19, 53, 121, 1)" stroke-width="1.5"></path><path d="M1448.06 80.75L1557.23 189.76" stroke="rgba(19, 53, 121, 1)" stroke-width="1.5"></path><path d="M1448.06 80.75L1609.72 71.09" stroke="rgba(19, 53, 121, 1)" stroke-width="1.5"></path><path d="M1448.06 80.75L1394.54 261.13" stroke="rgba(19, 53, 121, 1)" stroke-width="1.5"></path><path d="M1394.54 261.13L1394.54 261.13" stroke="rgba(19, 53, 121, 1)" stroke-width="1.5"></path><path d="M1394.54 261.13L1408.46 385.25" stroke="rgba(19, 53, 121, 1)" stroke-width="1.5"></path><path d="M1394.54 261.13L1240.67 247.78" stroke="rgba(19, 53, 121, 1)" stroke-width="1.5"></path><path d="M1394.54 261.13L1557.23 189.76" stroke="rgba(19, 53, 121, 1)" stroke-width="1.5"></path><path d="M1394.54 261.13L1244.36 391.41" stroke="rgba(19, 53, 121, 1)" stroke-width="1.5"></path><path d="M1394.54 261.13L1575.38 387.77" stroke="rgba(19, 53, 121, 1)" stroke-width="1.5"></path><path d="M1408.46 385.25L1408.46 385.25" stroke="rgba(19, 53, 121, 1)" stroke-width="1.5"></path><path d="M1408.46 385.25L1406.13 543.95" stroke="rgba(19, 53, 121, 1)" stroke-width="1.5"></path><path d="M1408.46 385.25L1575.38 387.77" stroke="rgba(19, 53, 121, 1)" stroke-width="1.5"></path><path d="M1408.46 385.25L1538.68 513.21" stroke="rgba(19, 53, 121, 1)" stroke-width="1.5"></path><path d="M1406.13 543.95L1406.13 543.95" stroke="rgba(19, 53, 121, 1)" stroke-width="1.5"></path><path d="M1406.13 543.95L1538.68 513.21" stroke="rgba(19, 53, 121, 1)" stroke-width="1.5"></path><path d="M1406.13 543.95L1269.86 551.42" stroke="rgba(19, 53, 121, 1)" stroke-width="1.5"></path><path d="M1609.72 71.09L1609.72 71.09" stroke="rgba(19, 53, 121, 1)" stroke-width="1.5"></path><path d="M1609.72 71.09L1557.23 189.76" stroke="rgba(19, 53, 121, 1)" stroke-width="1.5"></path><path d="M1609.72 71.09L1440.92 -64.36" stroke="rgba(19, 53, 121, 1)" stroke-width="1.5"></path><path d="M1609.72 71.09L1394.54 261.13" stroke="rgba(19, 53, 121, 1)" stroke-width="1.5"></path><path d="M1609.72 71.09L1302.08 41.34" stroke="rgba(19, 53, 121, 1)" stroke-width="1.5"></path><path d="M1609.72 71.09L1575.38 387.77" stroke="rgba(19, 53, 121, 1)" stroke-width="1.5"></path><path d="M1557.23 189.76L1557.23 189.76" stroke="rgba(19, 53, 121, 1)" stroke-width="1.5"></path><path d="M1575.38 387.77L1575.38 387.77" stroke="rgba(19, 53, 121, 1)" stroke-width="1.5"></path><path d="M1575.38 387.77L1538.68 513.21" stroke="rgba(19, 53, 121, 1)" stroke-width="1.5"></path><path d="M1538.68 513.21L1538.68 513.21" stroke="rgba(19, 53, 121, 1)" stroke-width="1.5"></path><path d="M1538.68 513.21L1585.92 699.25" stroke="rgba(19, 53, 121, 1)" stroke-width="1.5"></path><path d="M1538.68 513.21L1269.86 551.42" stroke="rgba(19, 53, 121, 1)" stroke-width="1.5"></path><path d="M1585.92 699.25L1585.92 699.25" stroke="rgba(19, 53, 121, 1)" stroke-width="1.5"></path><path d="M1585.92 699.25L1406.13 543.95" stroke="rgba(19, 53, 121, 1)" stroke-width="1.5"></path><path d="M1585.92 699.25L1575.38 387.77" stroke="rgba(19, 53, 121, 1)" stroke-width="1.5"></path><path d="M1585.92 699.25L1274.68 661.97" stroke="rgba(19, 53, 121, 1)" stroke-width="1.5"></path><path d="M1585.92 699.25L1269.86 551.42" stroke="rgba(19, 53, 121, 1)" stroke-width="1.5"></path><path d="M1585.92 699.25L1408.46 385.25" stroke="rgba(19, 53, 121, 1)" stroke-width="1.5"></path><circle r="5" cx="-79.04" cy="363.54" fill="rgba(19, 53, 121, 1)"></circle><circle r="5" cx="-58.18" cy="518.58" fill="rgba(19, 53, 121, 1)"></circle><circle r="5" cx="-74.75" cy="664.67" fill="rgba(19, 53, 121, 1)"></circle><circle r="5" cx="58" cy="381.55" fill="rgba(19, 53, 121, 1)"></circle><circle r="5" cx="37.98" cy="558.95" fill="rgba(19, 53, 121, 1)"></circle><circle r="5" cx="49.94" cy="694.11" fill="rgba(19, 53, 121, 1)"></circle><circle r="5" cx="256.75" cy="386.8" fill="rgba(19, 53, 121, 1)"></circle><circle r="5" cx="202.95" cy="533.36" fill="rgba(19, 53, 121, 1)"></circle><circle r="5" cx="224.11" cy="655.92" fill="rgba(19, 53, 121, 1)"></circle><circle r="5" cx="344.34" cy="407.81" fill="rgba(19, 53, 121, 1)"></circle><circle r="5" cx="397.41" cy="542.66" fill="rgba(19, 53, 121, 1)"></circle><circle r="5" cx="382.37" cy="641.44" fill="rgba(19, 53, 121, 1)"></circle><circle r="5" cx="522.3" cy="395.26" fill="rgba(19, 53, 121, 1)"></circle><circle r="5" cx="545.47" cy="496.45" fill="rgba(19, 53, 121, 1)"></circle><circle r="5" cx="544.47" cy="647.61" fill="rgba(19, 53, 121, 1)"></circle><circle r="5" cx="662.34" cy="230.58" fill="rgba(19, 53, 121, 1)"></circle><circle r="5" cx="680.04" cy="353.6" fill="rgba(19, 53, 121, 1)"></circle><circle r="5" cx="675.61" cy="493.09" fill="rgba(19, 53, 121, 1)"></circle><circle r="5" cx="684.73" cy="689.61" fill="rgba(19, 53, 121, 1)"></circle><circle r="5" cx="838.39" cy="106.78" fill="rgba(19, 53, 121, 1)"></circle><circle r="5" cx="801.13" cy="256.75" fill="rgba(19, 53, 121, 1)"></circle><circle r="5" cx="855.84" cy="361.1" fill="rgba(19, 53, 121, 1)"></circle><circle r="5" cx="801.19" cy="548.32" fill="rgba(19, 53, 121, 1)"></circle><circle r="5" cx="836.62" cy="700.26" fill="rgba(19, 53, 121, 1)"></circle><circle r="5" cx="953.47" cy="-111.24" fill="rgba(19, 53, 121, 1)"></circle><circle r="5" cx="954.57" cy="105.03" fill="rgba(19, 53, 121, 1)"></circle><circle r="5" cx="972.34" cy="251.88" fill="rgba(19, 53, 121, 1)"></circle><circle r="5" cx="987.71" cy="386.73" fill="rgba(19, 53, 121, 1)"></circle><circle r="5" cx="991.26" cy="561.81" fill="rgba(19, 53, 121, 1)"></circle><circle r="5" cx="941.82" cy="692.57" fill="rgba(19, 53, 121, 1)"></circle><circle r="5" cx="1152.91" cy="80.66" fill="rgba(19, 53, 121, 1)"></circle><circle r="5" cx="1095.04" cy="225.26" fill="rgba(19, 53, 121, 1)"></circle><circle r="5" cx="1118.43" cy="352.69" fill="rgba(19, 53, 121, 1)"></circle><circle r="5" cx="1153.35" cy="550.94" fill="rgba(19, 53, 121, 1)"></circle><circle r="5" cx="1148.25" cy="694.27" fill="rgba(19, 53, 121, 1)"></circle><circle r="5" cx="1280.31" cy="-92.34" fill="rgba(19, 53, 121, 1)"></circle><circle r="5" cx="1302.08" cy="41.34" fill="rgba(19, 53, 121, 1)"></circle><circle r="5" cx="1240.67" cy="247.78" fill="rgba(19, 53, 121, 1)"></circle><circle r="5" cx="1244.36" cy="391.41" fill="rgba(19, 53, 121, 1)"></circle><circle r="5" cx="1269.86" cy="551.42" fill="rgba(19, 53, 121, 1)"></circle><circle r="5" cx="1274.68" cy="661.97" fill="rgba(19, 53, 121, 1)"></circle><circle r="5" cx="1440.92" cy="-64.36" fill="rgba(19, 53, 121, 1)"></circle><circle r="5" cx="1448.06" cy="80.75" fill="rgba(19, 53, 121, 1)"></circle><circle r="5" cx="1394.54" cy="261.13" fill="rgba(19, 53, 121, 1)"></circle><circle r="5" cx="1408.46" cy="385.25" fill="rgba(19, 53, 121, 1)"></circle><circle r="5" cx="1406.13" cy="543.95" fill="rgba(19, 53, 121, 1)"></circle><circle r="5" cx="1609.72" cy="71.09" fill="rgba(19, 53, 121, 1)"></circle><circle r="5" cx="1557.23" cy="189.76" fill="rgba(19, 53, 121, 1)"></circle><circle r="5" cx="1575.38" cy="387.77" fill="rgba(19, 53, 121, 1)"></circle><circle r="5" cx="1538.68" cy="513.21" fill="rgba(19, 53, 121, 1)"></circle><circle r="5" cx="1585.92" cy="699.25" fill="rgba(19, 53, 121, 1)"></circle><path d="M351.94 498.49L351.94 498.49" stroke="hsl(228.5, 77.2%, 51.5%)" stroke-width="1.5"></path><path d="M351.94 498.49L230.93 548.33" stroke="hsl(228.5, 77.2%, 51.5%)" stroke-width="1.5"></path><path d="M351.94 498.49L507.81 523.21" stroke="hsl(228.5, 77.2%, 51.5%)" stroke-width="1.5"></path><path d="M351.94 498.49L365.59 697.95" stroke="hsl(228.5, 77.2%, 51.5%)" stroke-width="1.5"></path><path d="M507.81 523.21L507.81 523.21" stroke="hsl(228.5, 77.2%, 51.5%)" stroke-width="1.5"></path><path d="M507.81 523.21L645.94 487.91" stroke="hsl(228.5, 77.2%, 51.5%)" stroke-width="1.5"></path><path d="M507.81 523.21L501.42 684.95" stroke="hsl(228.5, 77.2%, 51.5%)" stroke-width="1.5"></path><path d="M507.81 523.21L667.2 393.8" stroke="hsl(228.5, 77.2%, 51.5%)" stroke-width="1.5"></path><path d="M501.42 684.95L501.42 684.95" stroke="hsl(228.5, 77.2%, 51.5%)" stroke-width="1.5"></path><path d="M501.42 684.95L365.59 697.95" stroke="hsl(228.5, 77.2%, 51.5%)" stroke-width="1.5"></path><path d="M501.42 684.95L351.94 498.49" stroke="hsl(228.5, 77.2%, 51.5%)" stroke-width="1.5"></path><path d="M501.42 684.95L645.94 487.91" stroke="hsl(228.5, 77.2%, 51.5%)" stroke-width="1.5"></path><path d="M501.42 684.95L250.63 695.13" stroke="hsl(228.5, 77.2%, 51.5%)" stroke-width="1.5"></path><path d="M1114.66 257.38L1114.66 257.38" stroke="hsl(228.5, 77.2%, 51.5%)" stroke-width="1.5"></path><path d="M1114.66 257.38L1002.65 235.83" stroke="hsl(228.5, 77.2%, 51.5%)" stroke-width="1.5"></path><path d="M1114.66 257.38L1107.8 397.68" stroke="hsl(228.5, 77.2%, 51.5%)" stroke-width="1.5"></path><path d="M1277.97 -44.26L1277.97 -44.26" stroke="hsl(228.5, 77.2%, 51.5%)" stroke-width="1.5"></path><path d="M1277.97 -44.26L1297.56 77.13" stroke="hsl(228.5, 77.2%, 51.5%)" stroke-width="1.5"></path><path d="M1611.18 241.73L1611.18 241.73" stroke="hsl(228.5, 77.2%, 51.5%)" stroke-width="1.5"></path><path d="M1611.18 241.73L1559.94 390.17" stroke="hsl(228.5, 77.2%, 51.5%)" stroke-width="1.5"></path><path d="M1611.18 241.73L1610.46 68.93" stroke="hsl(228.5, 77.2%, 51.5%)" stroke-width="1.5"></path><path d="M1611.18 241.73L1432.27 236.63" stroke="hsl(228.5, 77.2%, 51.5%)" stroke-width="1.5"></path><path d="M1572.7 533.7L1572.7 533.7" stroke="hsl(228.5, 77.2%, 51.5%)" stroke-width="1.5"></path><path d="M1572.7 533.7L1600.17 641.36" stroke="hsl(228.5, 77.2%, 51.5%)" stroke-width="1.5"></path><path d="M1572.7 533.7L1559.94 390.17" stroke="hsl(228.5, 77.2%, 51.5%)" stroke-width="1.5"></path><path d="M1572.7 533.7L1414.9 496.84" stroke="hsl(228.5, 77.2%, 51.5%)" stroke-width="1.5"></path><path d="M1572.7 533.7L1423.87 665.03" stroke="hsl(228.5, 77.2%, 51.5%)" stroke-width="1.5"></path><path d="M-92.61 525.62L-92.61 525.62" stroke="hsl(228.5, 77.2%, 51.5%)" stroke-width="1.5"></path><path d="M-92.61 525.62L-46.54 667.08" stroke="hsl(228.5, 77.2%, 51.5%)" stroke-width="1.5"></path><path d="M-92.61 525.62L107.68 495.07" stroke="hsl(228.5, 77.2%, 51.5%)" stroke-width="1.5"></path><path d="M-92.61 525.62L77.33 711.64" stroke="hsl(228.5, 77.2%, 51.5%)" stroke-width="1.5"></path><path d="M-92.61 525.62L230.93 548.33" stroke="hsl(228.5, 77.2%, 51.5%)" stroke-width="1.5"></path><path d="M-46.54 667.08L-46.54 667.08" stroke="hsl(228.5, 77.2%, 51.5%)" stroke-width="1.5"></path><path d="M-46.54 667.08L77.33 711.64" stroke="hsl(228.5, 77.2%, 51.5%)" stroke-width="1.5"></path><path d="M-46.54 667.08L107.68 495.07" stroke="hsl(228.5, 77.2%, 51.5%)" stroke-width="1.5"></path><path d="M-46.54 667.08L250.63 695.13" stroke="hsl(228.5, 77.2%, 51.5%)" stroke-width="1.5"></path><path d="M-46.54 667.08L230.93 548.33" stroke="hsl(228.5, 77.2%, 51.5%)" stroke-width="1.5"></path><path d="M107.68 495.07L107.68 495.07" stroke="hsl(228.5, 77.2%, 51.5%)" stroke-width="1.5"></path><path d="M107.68 495.07L230.93 548.33" stroke="hsl(228.5, 77.2%, 51.5%)" stroke-width="1.5"></path><path d="M107.68 495.07L77.33 711.64" stroke="hsl(228.5, 77.2%, 51.5%)" stroke-width="1.5"></path><path d="M77.33 711.64L77.33 711.64" stroke="hsl(228.5, 77.2%, 51.5%)" stroke-width="1.5"></path><path d="M77.33 711.64L250.63 695.13" stroke="hsl(228.5, 77.2%, 51.5%)" stroke-width="1.5"></path><path d="M230.93 548.33L230.93 548.33" stroke="hsl(228.5, 77.2%, 51.5%)" stroke-width="1.5"></path><path d="M250.63 695.13L250.63 695.13" stroke="hsl(228.5, 77.2%, 51.5%)" stroke-width="1.5"></path><path d="M250.63 695.13L365.59 697.95" stroke="hsl(228.5, 77.2%, 51.5%)" stroke-width="1.5"></path><path d="M250.63 695.13L230.93 548.33" stroke="hsl(228.5, 77.2%, 51.5%)" stroke-width="1.5"></path><path d="M365.59 697.95L365.59 697.95" stroke="hsl(228.5, 77.2%, 51.5%)" stroke-width="1.5"></path><path d="M365.59 697.95L230.93 548.33" stroke="hsl(228.5, 77.2%, 51.5%)" stroke-width="1.5"></path><path d="M667.2 393.8L667.2 393.8" stroke="hsl(228.5, 77.2%, 51.5%)" stroke-width="1.5"></path><path d="M667.2 393.8L645.94 487.91" stroke="hsl(228.5, 77.2%, 51.5%)" stroke-width="1.5"></path><path d="M667.2 393.8L805 351.42" stroke="hsl(228.5, 77.2%, 51.5%)" stroke-width="1.5"></path><path d="M645.94 487.91L645.94 487.91" stroke="hsl(228.5, 77.2%, 51.5%)" stroke-width="1.5"></path><path d="M645.94 487.91L794.9 555.54" stroke="hsl(228.5, 77.2%, 51.5%)" stroke-width="1.5"></path><path d="M645.94 487.91L805 351.42" stroke="hsl(228.5, 77.2%, 51.5%)" stroke-width="1.5"></path><path d="M805 351.42L805 351.42" stroke="hsl(228.5, 77.2%, 51.5%)" stroke-width="1.5"></path><path d="M805 351.42L794.9 555.54" stroke="hsl(228.5, 77.2%, 51.5%)" stroke-width="1.5"></path><path d="M794.9 555.54L794.9 555.54" stroke="hsl(228.5, 77.2%, 51.5%)" stroke-width="1.5"></path><path d="M794.9 555.54L965.29 509.26" stroke="hsl(228.5, 77.2%, 51.5%)" stroke-width="1.5"></path><path d="M794.9 555.54L956.11 674.31" stroke="hsl(228.5, 77.2%, 51.5%)" stroke-width="1.5"></path><path d="M794.9 555.54L667.2 393.8" stroke="hsl(228.5, 77.2%, 51.5%)" stroke-width="1.5"></path><path d="M1002.65 235.83L1002.65 235.83" stroke="hsl(228.5, 77.2%, 51.5%)" stroke-width="1.5"></path><path d="M1002.65 235.83L1107.8 397.68" stroke="hsl(228.5, 77.2%, 51.5%)" stroke-width="1.5"></path><path d="M1002.65 235.83L805 351.42" stroke="hsl(228.5, 77.2%, 51.5%)" stroke-width="1.5"></path><path d="M1002.65 235.83L1266.73 212.34" stroke="hsl(228.5, 77.2%, 51.5%)" stroke-width="1.5"></path><path d="M1002.65 235.83L965.29 509.26" stroke="hsl(228.5, 77.2%, 51.5%)" stroke-width="1.5"></path><path d="M965.29 509.26L965.29 509.26" stroke="hsl(228.5, 77.2%, 51.5%)" stroke-width="1.5"></path><path d="M965.29 509.26L956.11 674.31" stroke="hsl(228.5, 77.2%, 51.5%)" stroke-width="1.5"></path><path d="M965.29 509.26L1107.8 397.68" stroke="hsl(228.5, 77.2%, 51.5%)" stroke-width="1.5"></path><path d="M965.29 509.26L1141.41 560.45" stroke="hsl(228.5, 77.2%, 51.5%)" stroke-width="1.5"></path><path d="M956.11 674.31L956.11 674.31" stroke="hsl(228.5, 77.2%, 51.5%)" stroke-width="1.5"></path><path d="M956.11 674.31L1149.45 697.82" stroke="hsl(228.5, 77.2%, 51.5%)" stroke-width="1.5"></path><path d="M956.11 674.31L1141.41 560.45" stroke="hsl(228.5, 77.2%, 51.5%)" stroke-width="1.5"></path><path d="M956.11 674.31L1253.92 671.21" stroke="hsl(228.5, 77.2%, 51.5%)" stroke-width="1.5"></path><path d="M956.11 674.31L1107.8 397.68" stroke="hsl(228.5, 77.2%, 51.5%)" stroke-width="1.5"></path><path d="M1107.8 397.68L1107.8 397.68" stroke="hsl(228.5, 77.2%, 51.5%)" stroke-width="1.5"></path><path d="M1107.8 397.68L1245.01 397.84" stroke="hsl(228.5, 77.2%, 51.5%)" stroke-width="1.5"></path><path d="M1141.41 560.45L1141.41 560.45" stroke="hsl(228.5, 77.2%, 51.5%)" stroke-width="1.5"></path><path d="M1141.41 560.45L1245.73 496.82" stroke="hsl(228.5, 77.2%, 51.5%)" stroke-width="1.5"></path><path d="M1141.41 560.45L1149.45 697.82" stroke="hsl(228.5, 77.2%, 51.5%)" stroke-width="1.5"></path><path d="M1141.41 560.45L1253.92 671.21" stroke="hsl(228.5, 77.2%, 51.5%)" stroke-width="1.5"></path><path d="M1141.41 560.45L1107.8 397.68" stroke="hsl(228.5, 77.2%, 51.5%)" stroke-width="1.5"></path><path d="M1141.41 560.45L1245.01 397.84" stroke="hsl(228.5, 77.2%, 51.5%)" stroke-width="1.5"></path><path d="M1149.45 697.82L1149.45 697.82" stroke="hsl(228.5, 77.2%, 51.5%)" stroke-width="1.5"></path><path d="M1149.45 697.82L1253.92 671.21" stroke="hsl(228.5, 77.2%, 51.5%)" stroke-width="1.5"></path><path d="M1297.56 77.13L1297.56 77.13" stroke="hsl(228.5, 77.2%, 51.5%)" stroke-width="1.5"></path><path d="M1297.56 77.13L1412.73 84.52" stroke="hsl(228.5, 77.2%, 51.5%)" stroke-width="1.5"></path><path d="M1266.73 212.34L1266.73 212.34" stroke="hsl(228.5, 77.2%, 51.5%)" stroke-width="1.5"></path><path d="M1266.73 212.34L1297.56 77.13" stroke="hsl(228.5, 77.2%, 51.5%)" stroke-width="1.5"></path><path d="M1266.73 212.34L1114.66 257.38" stroke="hsl(228.5, 77.2%, 51.5%)" stroke-width="1.5"></path><path d="M1266.73 212.34L1432.27 236.63" stroke="hsl(228.5, 77.2%, 51.5%)" stroke-width="1.5"></path><path d="M1266.73 212.34L1245.01 397.84" stroke="hsl(228.5, 77.2%, 51.5%)" stroke-width="1.5"></path><path d="M1266.73 212.34L1412.73 84.52" stroke="hsl(228.5, 77.2%, 51.5%)" stroke-width="1.5"></path><path d="M1245.01 397.84L1245.01 397.84" stroke="hsl(228.5, 77.2%, 51.5%)" stroke-width="1.5"></path><path d="M1245.01 397.84L1245.73 496.82" stroke="hsl(228.5, 77.2%, 51.5%)" stroke-width="1.5"></path><path d="M1245.01 397.84L1417.08 386.55" stroke="hsl(228.5, 77.2%, 51.5%)" stroke-width="1.5"></path><path d="M1245.01 397.84L1114.66 257.38" stroke="hsl(228.5, 77.2%, 51.5%)" stroke-width="1.5"></path><path d="M1245.73 496.82L1245.73 496.82" stroke="hsl(228.5, 77.2%, 51.5%)" stroke-width="1.5"></path><path d="M1245.73 496.82L1414.9 496.84" stroke="hsl(228.5, 77.2%, 51.5%)" stroke-width="1.5"></path><path d="M1245.73 496.82L1107.8 397.68" stroke="hsl(228.5, 77.2%, 51.5%)" stroke-width="1.5"></path><path d="M1253.92 671.21L1253.92 671.21" stroke="hsl(228.5, 77.2%, 51.5%)" stroke-width="1.5"></path><path d="M1412.73 84.52L1412.73 84.52" stroke="hsl(228.5, 77.2%, 51.5%)" stroke-width="1.5"></path><path d="M1412.73 84.52L1432.27 236.63" stroke="hsl(228.5, 77.2%, 51.5%)" stroke-width="1.5"></path><path d="M1412.73 84.52L1277.97 -44.26" stroke="hsl(228.5, 77.2%, 51.5%)" stroke-width="1.5"></path><path d="M1412.73 84.52L1610.46 68.93" stroke="hsl(228.5, 77.2%, 51.5%)" stroke-width="1.5"></path><path d="M1432.27 236.63L1432.27 236.63" stroke="hsl(228.5, 77.2%, 51.5%)" stroke-width="1.5"></path><path d="M1432.27 236.63L1417.08 386.55" stroke="hsl(228.5, 77.2%, 51.5%)" stroke-width="1.5"></path><path d="M1417.08 386.55L1417.08 386.55" stroke="hsl(228.5, 77.2%, 51.5%)" stroke-width="1.5"></path><path d="M1417.08 386.55L1414.9 496.84" stroke="hsl(228.5, 77.2%, 51.5%)" stroke-width="1.5"></path><path d="M1417.08 386.55L1559.94 390.17" stroke="hsl(228.5, 77.2%, 51.5%)" stroke-width="1.5"></path><path d="M1414.9 496.84L1414.9 496.84" stroke="hsl(228.5, 77.2%, 51.5%)" stroke-width="1.5"></path><path d="M1423.87 665.03L1423.87 665.03" stroke="hsl(228.5, 77.2%, 51.5%)" stroke-width="1.5"></path><path d="M1423.87 665.03L1414.9 496.84" stroke="hsl(228.5, 77.2%, 51.5%)" stroke-width="1.5"></path><path d="M1423.87 665.03L1253.92 671.21" stroke="hsl(228.5, 77.2%, 51.5%)" stroke-width="1.5"></path><path d="M1423.87 665.03L1600.17 641.36" stroke="hsl(228.5, 77.2%, 51.5%)" stroke-width="1.5"></path><path d="M1597.3 -73.61L1597.3 -73.61" stroke="hsl(228.5, 77.2%, 51.5%)" stroke-width="1.5"></path><path d="M1597.3 -73.61L1610.46 68.93" stroke="hsl(228.5, 77.2%, 51.5%)" stroke-width="1.5"></path><path d="M1597.3 -73.61L1412.73 84.52" stroke="hsl(228.5, 77.2%, 51.5%)" stroke-width="1.5"></path><path d="M1597.3 -73.61L1611.18 241.73" stroke="hsl(228.5, 77.2%, 51.5%)" stroke-width="1.5"></path><path d="M1597.3 -73.61L1277.97 -44.26" stroke="hsl(228.5, 77.2%, 51.5%)" stroke-width="1.5"></path><path d="M1597.3 -73.61L1297.56 77.13" stroke="hsl(228.5, 77.2%, 51.5%)" stroke-width="1.5"></path><path d="M1597.3 -73.61L1432.27 236.63" stroke="hsl(228.5, 77.2%, 51.5%)" stroke-width="1.5"></path><path d="M1610.46 68.93L1610.46 68.93" stroke="hsl(228.5, 77.2%, 51.5%)" stroke-width="1.5"></path><path d="M1559.94 390.17L1559.94 390.17" stroke="hsl(228.5, 77.2%, 51.5%)" stroke-width="1.5"></path><path d="M1559.94 390.17L1414.9 496.84" stroke="hsl(228.5, 77.2%, 51.5%)" stroke-width="1.5"></path><path d="M1600.17 641.36L1600.17 641.36" stroke="hsl(228.5, 77.2%, 51.5%)" stroke-width="1.5"></path><path d="M1600.17 641.36L1414.9 496.84" stroke="hsl(228.5, 77.2%, 51.5%)" stroke-width="1.5"></path><path d="M1600.17 641.36L1559.94 390.17" stroke="hsl(228.5, 77.2%, 51.5%)" stroke-width="1.5"></path><circle r="25" cx="351.94" cy="498.49" fill="url(&quot;#SvgjsRadialGradient1106&quot;)"></circle><circle r="25" cx="507.81" cy="523.21" fill="url(&quot;#SvgjsRadialGradient1106&quot;)"></circle><circle r="25" cx="501.42" cy="684.95" fill="url(&quot;#SvgjsRadialGradient1106&quot;)"></circle><circle r="25" cx="1114.66" cy="257.38" fill="url(&quot;#SvgjsRadialGradient1106&quot;)"></circle><circle r="25" cx="1277.97" cy="-44.26" fill="url(&quot;#SvgjsRadialGradient1106&quot;)"></circle><circle r="25" cx="1611.18" cy="241.73" fill="url(&quot;#SvgjsRadialGradient1106&quot;)"></circle><circle r="25" cx="1572.7" cy="533.7" fill="url(&quot;#SvgjsRadialGradient1106&quot;)"></circle><circle r="5" cx="-92.61" cy="525.62" fill="#8b9ad9"></circle><circle r="5" cx="-46.54" cy="667.08" fill="#8b9ad9"></circle><circle r="5" cx="107.68" cy="495.07" fill="#8b9ad9"></circle><circle r="5" cx="77.33" cy="711.64" fill="#8b9ad9"></circle><circle r="5" cx="230.93" cy="548.33" fill="#8b9ad9"></circle><circle r="5" cx="250.63" cy="695.13" fill="#8b9ad9"></circle><circle r="5" cx="365.59" cy="697.95" fill="#8b9ad9"></circle><circle r="5" cx="667.2" cy="393.8" fill="#8b9ad9"></circle><circle r="5" cx="645.94" cy="487.91" fill="#8b9ad9"></circle><circle r="5" cx="805" cy="351.42" fill="#8b9ad9"></circle><circle r="5" cx="794.9" cy="555.54" fill="#8b9ad9"></circle><circle r="5" cx="1002.65" cy="235.83" fill="#8b9ad9"></circle><circle r="5" cx="965.29" cy="509.26" fill="#8b9ad9"></circle><circle r="5" cx="956.11" cy="674.31" fill="#8b9ad9"></circle><circle r="5" cx="1107.8" cy="397.68" fill="#8b9ad9"></circle><circle r="5" cx="1141.41" cy="560.45" fill="#8b9ad9"></circle><circle r="5" cx="1149.45" cy="697.82" fill="#8b9ad9"></circle><circle r="5" cx="1297.56" cy="77.13" fill="#8b9ad9"></circle><circle r="5" cx="1266.73" cy="212.34" fill="#8b9ad9"></circle><circle r="5" cx="1245.01" cy="397.84" fill="#8b9ad9"></circle><circle r="5" cx="1245.73" cy="496.82" fill="#8b9ad9"></circle><circle r="5" cx="1253.92" cy="671.21" fill="#8b9ad9"></circle><circle r="5" cx="1412.73" cy="84.52" fill="#8b9ad9"></circle><circle r="5" cx="1432.27" cy="236.63" fill="#8b9ad9"></circle><circle r="5" cx="1417.08" cy="386.55" fill="#8b9ad9"></circle><circle r="5" cx="1414.9" cy="496.84" fill="#8b9ad9"></circle><circle r="5" cx="1423.87" cy="665.03" fill="#8b9ad9"></circle><circle r="5" cx="1597.3" cy="-73.61" fill="#8b9ad9"></circle><circle r="5" cx="1610.46" cy="68.93" fill="#8b9ad9"></circle><circle r="5" cx="1559.94" cy="390.17" fill="#8b9ad9"></circle><circle r="5" cx="1600.17" cy="641.36" fill="#8b9ad9"></circle></g><defs><mask id="SvgjsMask1105"><rect width="1440" height="560" fill="#ffffff"></rect></mask><radialGradient id="SvgjsRadialGradient1106"><stop stop-color="#ffffff" offset="0.1"></stop><stop stop-color="#1735b3" offset="0.2"></stop><stop stop-color="rgba(23, 53, 179, 0)" offset="1"></stop></radialGradient></defs></svg>